<?xml version="1.0" standalone="no"?>
<!DOCTYPE svg PUBLIC "-//W3C//DTD SVG 20010904//EN"
 "http://www.w3.org/TR/2001/REC-SVG-20010904/DTD/svg10.dtd">
<svg version="1.0" xmlns="http://www.w3.org/2000/svg"
 width="780.000000pt" height="381.000000pt" viewBox="0 0 780.000000 381.000000"
 preserveAspectRatio="xMidYMid meet">
<metadata>
Created by potrace 1.16, written by Peter Selinger 2001-2019
</metadata>
<g transform="translate(0.000000,381.000000) scale(0.100000,-0.100000)"
fill="#000000" stroke="none">
<path d="M3930 3405 l0 -205 -315 0 c-308 0 -315 0 -315 -20 0 -19 7 -20 130
-20 79 0 130 -4 130 -10 0 -5 -35 -76 -79 -157 -43 -82 -153 -287 -243 -458
-194 -364 -550 -1033 -634 -1190 -32 -60 -81 -153 -109 -205 l-50 -95 -163 -3
c-154 -2 -162 -4 -162 -22 0 -20 8 -20 400 -20 393 0 400 0 400 20 0 19 -7 20
-180 20 -113 0 -180 4 -180 10 0 5 40 88 89 182 142 275 287 554 344 665 l52
103 303 0 302 0 0 -480 0 -480 -175 0 c-168 0 -175 -1 -175 -20 0 -20 7 -20
310 -20 l310 0 0 -82 c0 -94 -21 -150 -73 -194 -51 -43 -164 -92 -277 -120
-228 -56 -350 -164 -350 -309 0 -151 130 -254 286 -226 172 32 323 166 397
351 39 100 49 178 49 384 l0 188 76 -6 c96 -9 274 8 377 34 208 53 351 170
411 334 110 305 -62 573 -424 657 l-98 23 70 18 c169 42 299 139 360 267 29
62 31 73 30 171 -1 81 -6 120 -23 170 -60 173 -178 299 -371 395 -163 81 -292
201 -357 332 -29 58 -37 88 -41 148 -3 54 -8 75 -18 75 -11 0 -14 -38 -14
-205z m70 -143 c49 -159 100 -242 236 -384 92 -95 120 -132 154 -201 100 -202
81 -456 -42 -562 -57 -48 -92 -57 -250 -62 l-138 -5 1 699 c1 614 3 689 15
625 7 -40 18 -90 24 -110z m-355 -1199 c-3 -10 -68 -13 -277 -13 -150 0 -278
4 -284 8 -7 4 83 184 253 507 145 275 274 518 286 540 l22 40 3 -535 c1 -294
0 -541 -3 -547z m669 -79 c64 -25 135 -95 169 -166 73 -155 71 -443 -5 -605
-31 -67 -97 -127 -166 -153 -63 -24 -279 -48 -324 -37 l-28 7 0 491 0 491 153
-4 c118 -4 163 -9 201 -24z"/>
<path d="M510 2181 c-8 -21 -9 -34 -1 -47 13 -23 101 -253 101 -264 0 -5 -10
-11 -22 -13 -13 -2 11 -4 52 -5 43 0 65 3 51 7 -21 6 -34 32 -90 179 -36 94
-69 172 -72 172 -4 0 -12 -13 -19 -29z"/>
<path d="M2369 2187 c-10 -22 -5 -43 41 -164 29 -76 55 -143 57 -150 3 -6 -4
-13 -14 -16 -10 -3 11 -5 47 -4 36 0 56 2 45 4 -12 2 -26 18 -34 36 -6 18 -35
93 -63 167 -28 74 -54 139 -59 144 -4 5 -13 -2 -20 -17z"/>
<path d="M6221 2179 c-7 -22 -8 -36 -1 -44 6 -7 21 -43 35 -81 13 -38 35 -97
49 -131 l24 -62 -26 -4 c-15 -2 7 -4 48 -5 41 0 64 3 51 7 -19 5 -31 26 -62
111 -80 214 -91 240 -99 240 -4 0 -13 -14 -19 -31z"/>
<path d="M7281 2179 c-7 -22 -8 -36 -1 -44 6 -7 21 -43 35 -81 13 -38 35 -97
49 -131 l24 -62 -26 -4 c-15 -2 7 -4 48 -5 42 0 64 3 51 7 -20 5 -34 32 -89
179 -36 94 -69 172 -73 172 -4 0 -12 -14 -18 -31z"/>
<path d="M780 2189 c0 -6 6 -17 14 -25 8 -8 58 -84 112 -169 53 -85 98 -155
100 -155 2 0 3 82 2 183 l-2 182 -6 -132 -5 -132 -80 130 c-71 115 -82 129
-107 129 -15 0 -28 -5 -28 -11z"/>
<path d="M1150 2031 c0 -168 0 -170 -22 -174 -13 -2 -2 -5 25 -6 l47 -1 0 175
0 175 -25 0 -25 0 0 -169z"/>
<path d="M1327 2179 c17 -11 38 -37 47 -60 18 -45 21 -134 5 -176 -14 -39 -58
-83 -83 -84 -12 0 -15 -3 -9 -6 24 -9 82 18 112 52 76 87 56 226 -40 276 -50
25 -73 24 -32 -2z"/>
<path d="M1560 2031 l0 -170 -27 -4 c-16 -2 6 -4 47 -4 41 0 65 2 53 4 -23 4
-23 6 -23 174 l0 169 -25 0 -25 0 0 -169z"/>
<path d="M1699 2174 c12 -15 21 -39 21 -54 0 -15 -9 -39 -21 -54 -11 -14 -17
-26 -12 -26 17 0 43 -59 43 -97 0 -50 20 -87 48 -91 20 -3 21 -1 12 23 -5 14
-10 43 -10 63 0 44 -22 79 -58 93 l-26 10 31 19 c17 10 34 28 38 38 14 46 -23
102 -68 102 -17 0 -17 -2 2 -26z"/>
<path d="M1920 2031 c0 -168 0 -170 -22 -174 -13 -2 -2 -5 25 -6 l47 -1 0 175
0 175 -25 0 -25 0 0 -169z"/>
<path d="M5080 2031 l0 -170 -27 -4 c-16 -2 -4 -5 25 -6 l52 -1 0 175 0 175
-25 0 -25 0 0 -169z"/>
<path d="M5214 2185 c33 -33 32 -115 -2 -134 -9 -6 -12 -11 -7 -11 18 0 45
-57 45 -95 0 -45 -14 -73 -43 -85 -22 -9 -22 -9 -1 -9 34 -1 87 41 98 77 7 27
6 38 -11 60 -11 15 -33 33 -48 41 l-28 14 26 14 c30 15 47 42 47 73 0 27 -43
70 -70 70 -19 0 -20 -2 -6 -15z"/>
<path d="M5410 2057 c0 -113 3 -147 16 -165 18 -26 65 -52 91 -51 15 0 14 2
-3 9 -47 19 -54 44 -54 202 l0 148 -25 0 -25 0 0 -143z"/>
<path d="M6500 2031 c0 -168 0 -170 -22 -174 -13 -2 -2 -5 25 -6 l47 -1 0 175
0 175 -25 0 -25 0 0 -169z"/>
<path d="M6840 2031 l0 -170 -27 -4 c-16 -2 -4 -5 25 -6 l52 -1 0 175 0 175
-25 0 -25 0 0 -169z"/>
<path d="M5785 2160 c-35 -69 -5 -118 91 -146 75 -22 108 -54 100 -97 -3 -18
-16 -40 -27 -49 -12 -10 -17 -18 -13 -18 15 1 51 33 63 57 19 37 13 87 -11
110 -13 11 -53 30 -91 43 -86 28 -101 42 -94 92 6 46 2 48 -18 8z"/>
</g>
</svg>
